<?xml version="1.0" encoding="utf-8"?>
<!-- Generator: Adobe Illustrator 25.4.2, SVG Export Plug-In . SVG Version: 6.00 Build 0)  -->
<svg version="1.1" id="Layer_1" xmlns="http://www.w3.org/2000/svg" xmlns:xlink="http://www.w3.org/1999/xlink" x="0px" y="0px"
	 viewBox="0 0 85.41 84.99" style="enable-background:new 0 0 85.41 84.99;" xml:space="preserve">
<style type="text/css">
	.st0{fill:#FFFFFF;}
</style>
<g>
	<path class="st0" d="M83.31,35.49c-0.82-0.11-1.63-0.27-2.43-0.48c-1.94-0.61-3.72-1.63-5.22-3c-1.53-1.38-2.36-3.37-2.25-5.43
		c0.1-2.03,0.65-4.01,1.62-5.79c0.42-0.72,0.89-1.42,1.41-2.07c0.7-0.9,0.62-2.19-0.18-3l-6.75-6.75c-0.86-0.74-2.14-0.74-3,0
		c-0.63,0.52-1.3,0.98-2.01,1.38c-1.78,0.97-3.76,1.52-5.79,1.62c-2.06,0.12-4.06-0.71-5.43-2.25c-1.38-1.51-2.4-3.3-3-5.25
		c-0.23-0.78-0.39-1.59-0.48-2.4C49.69,0.89,48.7-0.01,47.52,0h-9.57c-1.17,0.02-2.15,0.91-2.28,2.07
		c-0.26,2.85-1.45,5.54-3.39,7.65c-1.38,1.53-3.37,2.36-5.43,2.25c-2.03-0.1-4.01-0.65-5.79-1.62c-0.72-0.4-1.4-0.86-2.04-1.38
		c-0.86-0.74-2.14-0.74-3,0l-3.3,3.36l-3.36,3.39c-0.74,0.86-0.74,2.14,0,3c0.52,0.63,0.98,1.3,1.38,2.01
		c0.83,1.81,1.28,3.77,1.32,5.76c0.11,2.11-0.75,4.16-2.34,5.55c-1.51,1.38-3.3,2.4-5.25,3c-0.79,0.21-1.59,0.38-2.4,0.48
		C0.89,35.63-0.01,36.62,0,37.8v9.54c-0.01,1.17,0.88,2.14,2.04,2.25c0.82,0.11,1.63,0.27,2.43,0.48c1.95,0.6,3.74,1.62,5.25,3
		c1.53,1.38,2.36,3.37,2.25,5.43c-0.13,2.02-0.68,4-1.62,5.79c-0.41,0.72-0.88,1.41-1.41,2.04c-0.74,0.86-0.74,2.14,0,3l3.78,3.33
		l3.36,3.36c0.86,0.74,2.14,0.74,3,0c0.64-0.51,1.33-0.97,2.04-1.38c1.79-0.96,3.77-1.51,5.79-1.62c2.05-0.1,4.05,0.73,5.43,2.25
		c1.94,2.11,3.13,4.8,3.39,7.65c0.13,1.16,1.11,2.05,2.28,2.07h9.54c1.18,0.01,2.17-0.89,2.28-2.07c0.09-0.81,0.25-1.62,0.48-2.4
		c0.6-1.95,1.62-3.74,3-5.25c1.38-1.52,3.38-2.35,5.43-2.25c2.02,0.11,4,0.66,5.79,1.62c0.71,0.41,1.38,0.87,2.01,1.38
		c0.86,0.74,2.14,0.74,3,0l3.39-3.36l3.36-3.39c0.8-0.81,0.88-2.1,0.18-3c-0.53-0.65-1-1.34-1.41-2.07
		c-0.97-1.78-1.52-3.76-1.62-5.79c-0.11-2.06,0.72-4.05,2.25-5.43c1.5-1.37,3.28-2.39,5.22-3c0.8-0.22,1.61-0.37,2.43-0.45
		c1.16-0.13,2.05-1.11,2.07-2.28v-9.51C85.4,36.56,84.49,35.58,83.31,35.49z M42.72,62.49c-11.03,0-19.98-8.95-19.98-19.98
		s8.95-19.98,19.98-19.98S62.7,31.48,62.7,42.51c0,0.01,0,0.02,0,0.03c0,11.02-8.93,19.95-19.95,19.95
		C42.74,62.49,42.73,62.49,42.72,62.49z"/>
</g>
</svg>
